<?xml version="1.0" standalone="no"?>
<!DOCTYPE svg PUBLIC "-//W3C//DTD SVG 1.1//EN" "http://www.w3.org/Graphics/SVG/1.1/DTD/svg11.dtd" >
<svg xmlns="http://www.w3.org/2000/svg">
<metadata>
Created by FontForge 20120731 at Tue Apr 25 18:43:41 2017
 By admin
</metadata>
<defs>
<font id="iconfont" horiz-adv-x="1024" >
  <font-face 
    font-family="iconfont"
    font-weight="500"
    font-stretch="normal"
    units-per-em="1024"
    panose-1="2 0 6 3 0 0 0 0 0 0"
    ascent="896"
    descent="-128"
    x-height="792"
    bbox="0 -212 1024 896"
    underline-thickness="0"
    underline-position="0"
    unicode-range="U+0078-E6C0"
  />
<missing-glyph 
 />
    <glyph glyph-name=".notdef" 
 />
    <glyph glyph-name=".notdef" 
 />
    <glyph glyph-name=".null" horiz-adv-x="0" 
 />
    <glyph glyph-name="nonmarkingreturn" horiz-adv-x="341" 
 />
    <glyph glyph-name="x" unicode="x" horiz-adv-x="1001" 
d="M281 543q-27 -1 -53 -1h-83q-18 0 -36.5 -6t-32.5 -18.5t-23 -32t-9 -45.5v-76h912v41q0 16 -0.5 30t-0.5 18q0 13 -5 29t-17 29.5t-31.5 22.5t-49.5 9h-133v-97h-438v97zM955 310v-52q0 -23 0.5 -52t0.5 -58t-10.5 -47.5t-26 -30t-33 -16t-31.5 -4.5q-14 -1 -29.5 -0.5
t-29.5 0.5h-32l-45 128h-439l-44 -128h-29h-34q-20 0 -45 1q-25 0 -41 9.5t-25.5 23t-13.5 29.5t-4 30v167h911zM163 247q-12 0 -21 -8.5t-9 -21.5t9 -21.5t21 -8.5q13 0 22 8.5t9 21.5t-9 21.5t-22 8.5zM316 123q-8 -26 -14 -48q-5 -19 -10.5 -37t-7.5 -25t-3 -15t1 -14.5
t9.5 -10.5t21.5 -4h37h67h81h80h64h36q23 0 34 12t2 38q-5 13 -9.5 30.5t-9.5 34.5q-5 19 -11 39h-368zM336 498v228q0 11 2.5 23t10 21.5t20.5 15.5t34 6h188q31 0 51.5 -14.5t20.5 -52.5v-227h-327z" />
    <glyph glyph-name="xiangji" unicode="&#xe633;" 
d="M881 -87h-39v0h-660v0h-39q-32 0 -54.5 22.5t-22.5 54.5v523q0 32 22.5 54.5t54.5 22.5h39v0v0h126l49 78q0 7 14.5 13t24.5 6h232q10 0 24.5 -6t14.5 -13l49 -78h126h39q32 0 54.5 -22.5t22.5 -54.5v-523q0 -32 -22.5 -54.5t-54.5 -22.5zM512 513q-104 0 -178 -74
t-74 -178t74 -177.5t178 -73.5t178 73.5t74 177.5v0q0 105 -74 178.5t-178 73.5zM512 87q-72 0 -123.5 51t-51.5 123t51.5 123t123.5 51t123.5 -51t51.5 -123t-51.5 -123t-123.5 -51z" />
    <glyph glyph-name="our" unicode="&#xe625;" 
d="M586 311q41 20 65.5 59.5t24.5 86.5q0 67 -48 115t-116 48t-116 -48t-48 -115q0 -47 24.5 -86.5t65.5 -59.5q-82 -25 -134 -93.5t-52 -155.5q0 -48 74.5 -77t185.5 -29t185.5 29t74.5 77q0 87 -52 155.5t-134 93.5zM326 277q-24 19 -53 28q25 13 40.5 37.5t15.5 53.5
q0 42 -30 72t-72.5 30t-72.5 -30t-30 -72q0 -29 15.5 -53.5t40.5 -37.5q-51 -15 -83 -58t-32 -97q0 -28 42 -46t105 -20q6 60 36 110.5t78 82.5zM844 305q25 13 40.5 37.5t15.5 53.5q0 42 -30 72t-72.5 30t-72.5 -30t-30 -72q0 -29 15.5 -53.5t40.5 -37.5q-29 -9 -53 -28
q48 -32 78 -82.5t36 -110.5q63 2 105 20t42 46q0 54 -32 97t-83 58z" />
    <glyph glyph-name="services" unicode="&#xe62e;" 
d="M660 770l-16 -7l-58 -22l-16 -6l4 -17l12 -62q-6 -6 -19 -20l-61 13l-16 4l-7 -15l-25 -58l-6 -15l14 -10l52 -35v-30l-53 -33l-15 -9l6 -16l23 -58l6 -16l17 4l61 12q9 -11 21 -20l-14 -62l-4 -16l16 -7l57 -25l16 -6l9 14l36 52h30l33 -54l9 -14l16 6l57 23l16 6l-3 17
l-14 67q11 10 21 21l62 -16l17 -4l6 16l25 57l7 16l-15 10l-54 33q1 14 0 30l54 33l15 9l-7 16l-22 57l-6 16l-18 -3l-62 -14q-10 10 -21 20l14 61l3 17l-15 6l-58 25l-16 7l-9 -15l-33 -52q-8 1 -30 0l-33 54zM643 719l30 -49l7 -12l14 3q14 3 47 -1l13 -1l7 11l29 47
l26 -11l-13 -55l-3 -14l12 -7q18 -14 32 -32l7 -12l14 3l56 13l10 -26l-49 -29l-11 -7l1 -13q3 -24 0 -48l-1 -13l11 -7l49 -30l-11 -25l-57 14l-14 4l-7 -12q-14 -19 -32 -32l-11 -8l2 -13l13 -61l-26 -9l-29 48l-7 11l-13 -1q-24 -3 -48 0l-13 1l-7 -10l-31 -48l-26 12
l12 55l3 13l-11 8q-18 13 -32 32l-7 11l-14 -3l-55 -11l-10 26l49 30l12 7l-2 12q-3 25 0 49l2 12l-11 7l-48 32l11 26l56 -13l12 -2l8 9q11 14 34 36l7 8l-2 10l-11 55zM717 607q-42 0 -72.5 -30t-30.5 -72t30.5 -72.5t72.5 -30.5t72 30.5t30 72.5t-30 72t-72 30z
M716.5 566q25.5 0 43.5 -18t18 -43.5t-18 -43.5t-43.5 -18t-43.5 18t-18 43.5t18 43.5t43.5 18zM277 402l-2 -17l-11 -66q-14 -5 -32 -15l-56 41l-14 11l-13 -13l-47 -47l-12 -12l10 -14l39 -56q-9 -19 -14 -33l-67 -12l-17 -3v-18v-65v-17l17 -3l67 -13q4 -13 14 -32
l-40 -54l-11 -14l12 -13l47 -47l12 -12l14 10l57 39q18 -9 32 -14l11 -67l2 -17h18h65h18l2 17l13 67q14 4 32 14l56 -41l14 -10l13 12l47 47l12 12l-9 14l-41 57q10 21 14 32l69 13l16 3v17v65v18l-17 3l-69 10q-5 17 -13 32l41 56l9 14l-11 13l-48 49l-12 13l-15 -11
l-56 -41q-21 11 -32 15l-10 66l-3 17h-18h-65h-18zM312 361h31l10 -60l2 -13l11 -3q35 -12 49 -21l12 -7l11 8l51 37l23 -24l-37 -52l-8 -11l7 -12q15 -23 20 -47l3 -13l14 -2l62 -10v-31l-62 -11l-12 -2l-4 -12q-12 -35 -21 -49l-7 -11l8 -11l37 -52l-23 -23l-51 38l-11 7
l-12 -7q-23 -14 -47 -20l-13 -3l-2 -13l-11 -61h-32l-9 61l-2 12l-12 4q-35 12 -49 20l-11 7l-11 -7l-52 -36l-23 23l37 49l9 12l-8 11q-14 24 -20 47l-3 13l-13 3l-61 11v32l61 11l12 2l4 11q12 35 20 49l7 12l-7 11l-36 52l23 22l52 -37l10 -8l12 7q23 15 47 20l14 3l2 14
zM328 218q-42 0 -72.5 -30t-30.5 -72t30.5 -72.5t72.5 -30.5t72 30.5t30 72.5t-30 72t-72 30zM327.5 177q25.5 0 43.5 -18t18 -43.5t-18 -43.5t-43.5 -18t-43.5 18t-18 43.5t18 43.5t43.5 18z" />
    <glyph glyph-name="mail" unicode="&#xe614;" 
d="M920 136q0 -6 -4 -10.5t-10 -4.5h-777q-7 0 -11 4.5t-4 10.5v518q0 6 4 10t11 4h777q6 0 10 -4t4 -10v-518zM977 136v518q0 29 -21 50t-50 21h-777q-30 0 -51 -21t-21 -50v-518q0 -30 21 -51t51 -21h777q29 0 50 21t21 51zM79 507l432 -177l21 52l-432 177zM100 559
q-16 7 -28.5 -3.5t-11 -26.5t18.5 -22l432 -177q16 -7 28.5 3t11 26t-18.5 23zM532 330l415 172l-22 53l-415 -173zM510 382q-16 -7 -17.5 -23t11 -26t28.5 -3l415 172q16 7 17.5 23t-11 26.5t-28.5 3.5z" />
    <glyph glyph-name="twitter" unicode="&#xe634;" 
d="M672 674q49 1 81.5 -13.5t63.5 -43.5q38 3 94 31q17 10 23 13q-21 -57 -59 -86q-17 -13 -20 -15v0q17 0 34.5 4.5t39.5 13t29 10.5v-1q-27 -43 -62 -71q-5 -4 -15.5 -12t-12.5 -11q0 -75 -9 -118q-35 -155 -125.5 -258t-234.5 -147q-54 -17 -125.5 -21t-133.5 10
q-63 16 -108 35q-28 12 -52 27q-10 6 -16 10l28 -2.5t30 0.5q8 1 26 2t27 3q67 15 110 40q3 2 12 7t14.5 8t12.5 8t11 10q-26 -1 -55 9q-82 29 -116 118q68 -8 82 3q-24 2 -61 25q-86 54 -86 157q6 -3 19 -9t38 -11q20 -4 25 -2v0q-5 5 -17 14t-17 15q-64 80 -41 167
q5 22 19 48q1 0 1 -0.5v-0.5q2 -4 9 -11l8 -8q21 -26 55 -52q52 -41 103 -66t121 -43q43 -10 82 -10q-5 19 -4.5 43t5.5 43q25 89 104 123q17 7 41 12q8 1 22 3v0z" />
    <glyph glyph-name="icon" unicode="&#xe601;" 
d="M828 426q0 87 -43 160.5t-116.5 116.5t-160.5 43t-160.5 -43t-116 -116.5t-42.5 -160.5q0 -95 52 -174h-1l240 -383v0q8 -18 28 -18t29 18v0l239 383v0q52 79 52 174v0zM508 572q61 0 103.5 -42.5t42.5 -103t-42.5 -103t-103 -42.5t-103.5 42.5t-43 103t43 103t103 42.5
v0zM508 572z" />
    <glyph glyph-name="wifi" unicode="&#xe60d;" 
d="M129 452v-147q72 0 137 -27t116 -78q103 -104 105 -251h147q-1 103 -41.5 196t-108 160.5t-160.5 107t-195 39.5zM129 713v-147q125 0 239 -49t196.5 -131.5t132 -196.5t50.5 -240h147q-1 156 -62 297.5t-163.5 243.5t-243.5 162.5t-296 60.5zM231 153q-42 0 -72 -29.5
t-30 -72t30 -72.5t72 -30t72 30t30 72.5t-30 72t-72 29.5v0z" />
    <glyph glyph-name="icon1" unicode="&#xe635;" 
d="M683 747h-342q-28 0 -48 -20t-20 -48v-758q0 -28 20 -48t48 -20h342q28 0 48 20t20 48v758q0 28 -20 48t-48 20zM465 687h94q6 0 10 -4t4 -10.5t-4 -10.5t-10 -4h-94q-6 0 -10 4t-4 10.5t4 10.5t10 4zM512 -117q-18 0 -31.5 13t-13.5 31.5t13.5 31.5t31.5 13t31.5 -13
t13.5 -31.5t-13.5 -31.5t-31.5 -13zM720 0h-416v598h416v-598z" />
    <glyph glyph-name="facebook" unicode="&#xe6ae;" 
d="M736 742v-132h-79q-43 0 -58 -18t-15 -54v-94h146l-19 -148h-127v-380h-153v380h-127v148h127v108q0 94 52 145t139 51q73 0 114 -6z" />
    <glyph glyph-name="dianhua" unicode="&#xe602;" 
d="M744 -147v0h-4q-81 4 -184 75.5t-204 194.5l-51 61q-101 123 -151.5 236.5t-38.5 191.5q9 52 71 94t113 42q35 0 46 -25q28 -49 53.5 -116t25.5 -95v-3l-1 -2q-8 -21 -41 -40q-17 -9 -24.5 -17t-8.5 -23q-2 -28 95 -147l38 -46q97 -115 125 -119q15 -2 24.5 3.5
t22.5 20.5q25 28 48 31h2h3q28 -6 89.5 -44.5t106.5 -76.5q24 -16 11 -57q-14 -46 -65 -92.5t-101 -46.5v0z" />
    <glyph glyph-name="iconfontboxno" unicode="&#xe60e;" 
d="M576 237v-39q0 -10 -7 -17.5t-18 -7.5h-78q-11 0 -18 7.5t-7 17.5v39h-384v-271q0 -20 14.5 -34.5t34.5 -14.5h798q20 0 34.5 14.5t14.5 34.5v271h-384zM911 557h-207v79q0 20 -14.5 34.5t-34.5 14.5h-286q-20 0 -34.5 -14.5t-14.5 -34.5v-79h-207q-20 0 -34.5 -14.5
t-14.5 -34.5v-207h384v40q0 10 7 17t18 7h78q11 0 18 -7t7 -17v-40h384v207q0 20 -14.5 34.5t-34.5 14.5zM640 557h-256v64h256v-64z" />
    <glyph glyph-name="naoling" unicode="&#xe62a;" 
d="M939 68q-45 27 -58 46q-63 82 -63 186v103q0 113 -73 198t-183 103q16 19 16 42q0 27 -19.5 46.5t-46.5 19.5t-46.5 -19.5t-19.5 -46.5q0 -23 16 -42q-110 -18 -183 -103t-73 -198v-103q0 -104 -62 -186q-14 -19 -59 -46q-19 -12 -30 -19.5t-26 -21.5t-22 -31.5t-7 -38.5
q0 -13 9.5 -22.5t22.5 -9.5h387q-8 -18 -8 -36q0 -42 29.5 -71.5t71.5 -29.5t71 29.5t29 70.5q0 19 -7 37h387q13 0 22.5 9.5t9.5 22.5q0 21 -7 38.5t-22 31.5t-26 21.5t-30 19.5zM83 -11q13 10 36 24q55 34 76 62q75 100 75 225v103q0 100 71 171t171 71t171 -71t71 -171
v-103q0 -125 75 -225q21 -28 76 -62q23 -13 36 -24h-858z" />
    <glyph glyph-name="jiangbei" unicode="&#xe655;" horiz-adv-x="1025" 
d="M1024 649q-1 12 -1 17h-184q1 35 1.5 70t0.5 53l-1 17q0 6 -6 6h-320h-2h-3h-320q-6 0 -6 -6q-3 -61 1 -140h-178h-6v-6v-35v-7v-6v-14v-5v0q4 -124 51 -222q51 -104 144 -172q77 -56 175 -80q52 -56 105 -70v-82q-2 -10 -6 -20.5t-19.5 -27t-38 -28.5t-65 -21t-96.5 -9
h-25q-6 0 -6 -6v-61q0 -6 6 -6h574q6 0 6 6v61q0 6 -6 6h-25q-46 0 -83.5 6t-60.5 15t-40 21.5t-24.5 22.5t-12 21t-4.5 15v6v12v69q52 14 105 70q97 24 175 80q93 68 144 172q24 51 36.5 111t13.5 91.5t1 75.5zM117 403q-40 82 -43 190h115q3 -33 8 -60q32 -194 96 -308
q-118 60 -176 178zM907 403q-58 -119 -178 -179q64 114 97 309q4 27 8 60h116q-3 -108 -43 -190zM907 403z" />
    <glyph glyph-name="needlezhen" unicode="&#xe694;" 
d="M785 299q0 -17 -17 -17h-256v-393q0 -17 -17 -17t-17 17v393h-256q-17 0 -17 17q0 55 48 107.5t123 75.5v250q-45 21 -74 64.5t-29 82.5q0 17 17 17h410q17 0 17 -17q0 -38 -29 -82t-74 -65v-250q73 -23 121 -74.5t50 -106.5v-2zM749 316q-9 40 -50 79q-42 38 -104 57
h-200q-62 -19 -103.5 -57.5t-50.5 -78.5h508zM309 862q17 -73 88 -102h196q70 29 88 102h-372zM410 486h170v239h-170v-239z" />
    <glyph glyph-name="jiangbei1" unicode="&#xe613;" 
d="M928 608h-99q3 37 3 67q0 29 -3 63q0 12 -9.5 20.5t-21.5 8.5h-571q-13 0 -22 -8.5t-10 -20.5q-3 -35 -3 -63q0 -30 3 -67h-99q-13 0 -22.5 -9.5t-9.5 -22.5q0 -99 53.5 -161.5t138.5 -62.5q1 0 2.5 0.5t2.5 0.5q39 -81 96 -131.5t123 -60.5v-0.5v-0.5v-128h-128
q-13 0 -22.5 -9.5t-9.5 -22.5t9.5 -22.5t22.5 -9.5h320q13 0 22.5 9.5t9.5 22.5t-9.5 22.5t-22.5 9.5h-128v128v0.5v0.5q66 10 123 60.5t97 131.5l1.5 -0.5t2.5 -0.5q85 0 138.5 62.5t53.5 161.5q0 13 -9.5 22.5t-22.5 9.5zM130 544h72q11 -67 31 -126q-41 8 -68.5 41.5
t-34.5 84.5zM512 223q-68 0 -127 61.5t-94 165.5t-35 225q0 14 1 28h510q1 -15 1 -28q0 -121 -35 -225t-94 -165.5t-127 -61.5zM791 418q20 58 31 126h72q-7 -51 -34.5 -84.5t-68.5 -41.5z" />
    <glyph glyph-name="linkedin" unicode="&#xe696;" 
d="M419 -9h172v333q0 31 8 46q9 28 31.5 48t56.5 20q44 0 65.5 -33.5t21.5 -91.5v-320h172v342q0 123 -54 186t-143 63q-62 0 -106 -28t-64 -63h-4l-7 78h-151q4 -102 4 -184v-396h-2zM196 820q-41 0 -66 -25.5t-24 -65.5q-1 -38 24 -64t66 -26q42 0 67.5 26t25.5 64
q-2 40 -27.5 65.5t-65.5 25.5zM282 -9v579h-172v-579h172z" />
    <glyph glyph-name="naoling1" unicode="&#xe649;" 
d="M776 407q-1 63 -42 125.5t-99 87.5v43q0 38 -27.5 65.5t-66 27.5t-66 -27.5t-27.5 -65.5v-43q-58 -25 -99.5 -87.5t-41.5 -125.5v-162h469v162v0zM494 663q0 19 14 32.5t33.5 13.5t33 -13.5t13.5 -32.5h-94zM799 221h-515l-71 -69v-24l24 -23h211q0 -38 27.5 -65.5
t66 -27.5t66 27.5t27.5 65.5h211l23 23v24z" />
    <glyph glyph-name="tuding" unicode="&#xe620;" 
d="M530 -53l48 304l188 -7q2 1 5.5 3.5t10.5 10t10.5 14.5t3.5 18t-8 20l-100 108l-21 170l55 69q1 3 3.5 7t4.5 15.5t0 20.5t-13 17t-32 11l-332 1q-2 -2 -5 -5.5t-9.5 -13t-9 -19.5t1.5 -23.5t17 -25.5l45 -51l-23 -162l-89 -113q-1 -2 -2.5 -5.5t-3 -13.5t-0.5 -18.5
t7 -18t18 -15.5l177 2zM536 434l-149 -3l25 161h124v-158z" />
    <glyph glyph-name="arrows_stretch_diagonal" unicode="&#xe6c0;" 
d="M832 896v-32h137l-372 -373l22 -22l373 372v-137h32v176l-16 16h-176zM405 299l-373 -372v137h-32v-176l16 -16h176v32h-137l372 373zM629 245l-256 256l22 22l256 -256z" />
  </font>
</defs>
</svg>
